<?xml version="1.0" encoding="utf-8"?>
<!-- Generator: Adobe Illustrator 26.0.3, SVG Export Plug-In . SVG Version: 6.00 Build 0)  -->
<svg version="1.1" xmlns="http://www.w3.org/2000/svg" xmlns:xlink="http://www.w3.org/1999/xlink" x="0px" y="0px"
	 viewBox="0 0 750 500" style="enable-background:new 0 0 750 500;" xml:space="preserve">
<style type="text/css">
	.st0{fill:#FEF0DD;}
	.st1{fill:#AB72E8;}
	.st2{opacity:0.3;fill:#B8C1CE;}
	.st3{fill:url(#SVGID_1_);}
	.st4{fill:url(#SVGID_00000129915245219244980790000003466768215344991903_);}
	.st5{fill:#4B6DB1;}
	.st6{fill:url(#SVGID_00000146495595197706626340000010692857440660670138_);}
	.st7{fill:url(#SVGID_00000008142082704648882380000009271241914346232223_);}
	.st8{fill:url(#SVGID_00000088105593841330349080000007442255820021238432_);}
	.st9{fill:url(#SVGID_00000013878119548352646490000009494067323671619226_);}
	.st10{fill:#102866;}
	.st11{fill:url(#SVGID_00000052797113881169756570000009990310271059974333_);}
	.st12{fill:url(#SVGID_00000034059445849001389640000000116642805582473856_);}
	.st13{fill:url(#SVGID_00000182506823486520125700000015427790651821824412_);}
</style>
<g id="BACKGROUNDv">
	<rect x="0.09" class="st0" width="750" height="500"/>
</g>
<g id="DESIGNED_BY_FREEPIK">
	<rect x="0.5" class="st1" width="750" height="155.5"/>
</g>
<g id="OBJECTS">
	<g>
		<g>
			<path class="st2" d="M0.76,84.23c0,0,35.3,0.98,51.3,0s32.5-3.93,32.5-3.93s30-4.91,64-3.43s81-0.98,81-0.98s32,1.96,56,1.96
				s75.5,6.38,75.5,6.38h61l-137-24.53c0,0-24-8.83-41.5-9.81c-17.5-0.98-49.23-1.47-49.23-1.47l-70.27-2.45l-51.5-2.45L0.5,39.09V0
				c0,0,207.07,30.25,221.57,27.8s47.5-1.47,71-1.96c23.5-0.49,25.5-1.47,44-3.43s72.5,17.17,102,21.59s137,16.68,162,18.16
				s149.43,0.49,149.43,0.49v29.21c0,0-90.43-6.64-118.43-5.65c-28,0.98-89,5.65-89,5.65s-46.5,11.03-79,13.97
				c-32.5,2.94-100-1.96-126.5-5.4s-158-7.83-186.5-8.58c-28.5-0.75-67.5,6.12-67.5,6.12l-82.8,8.75V84.23z"/>
			<path class="st2" d="M362.07,0c0,0,92.5,21.83,122.5,24.33c30,2.5,40-2,71.5-0.5s43,0,66.5,2.5s70,8.5,70,8.5l57.93,5.5V0H362.07
				z"/>
			<linearGradient id="SVGID_1_" gradientUnits="userSpaceOnUse" x1="371.8692" y1="296.1802" x2="379.248" y2="158.0923">
				<stop  offset="0" style="stop-color:#9CB3D3"/>
				<stop  offset="0.367" style="stop-color:#91ABCF"/>
				<stop  offset="1" style="stop-color:#7495C3"/>
			</linearGradient>
			<path class="st3" d="M0.5,142.73c0,0,23.75,10.55,27.85,10.55c4.1,0,23.44-5.86,39.84-10.55c16.41-4.69,38.67-7.62,38.67-7.62
				s19.92-18.75,26.95-18.75s26.95,14.65,29.88,16.41c2.93,1.76,11.13,2.93,11.13,2.93l8.79-1.76c0,0,22.26,4.1,33.4,3.52
				c11.13-0.59,19.33-1.76,21.09-1.76c1.76,0,14.06,0.59,14.06,0.59l48.63-22.85h14.65c0,0,13.48-4.69,15.23-4.69
				c1.76,0,24.02,18.11,24.02,18.11h20.8l9.67,2.39l9.37,8.79l15.82,3.52l29.3,6.45c0,0,35.74,1.76,52.73-4.69
				c16.99-6.44,26.37-8.79,26.37-8.79l12.89-1.76l9.96-4.28l12.3,3.11l20.51,5.27c0,0,41.6,18.16,44.53,15.82
				c2.93-2.34,37.5-8.2,37.5-8.2l24.61-8.2l16.99-5.46l30.47,7.22l21.99,4.69v171.09H0.5V142.73z"/>
			
				<linearGradient id="SVGID_00000083786066839881200760000012564619816910336676_" gradientUnits="userSpaceOnUse" x1="472.4422" y1="210.2293" x2="492.9422" y2="189.2293">
				<stop  offset="0" style="stop-color:#9CB3D3"/>
				<stop  offset="0.367" style="stop-color:#91ABCF;stop-opacity:0.633"/>
				<stop  offset="1" style="stop-color:#7495C3;stop-opacity:0"/>
			</linearGradient>
			<path style="fill:url(#SVGID_00000083786066839881200760000012564619816910336676_);" d="M436.77,187.79c0,0,19.17,4.58,23.34,0
				c4.17-4.58-5-6.67-5-6.67s0.83-5.83-1.25-7.92c-2.08-2.08-4.87-7.5-4.87-7.5s10.8,7.92,12.21,8.75c1.41,0.83-5.16,4.58,0,6.25
				c5.16,1.67,10.17,6.67,14.33,7.08c4.17,0.42,11.25,2.82,12.92,2.04c1.67-0.79,20.42-3.29,20.42-3.29s-12.5,6.25-12.5,10.42
				s5.42,7.92,10.42,12.92c5,5,16.67,16.67,16.67,16.67s-23.75-10.83-32.5-17.5c-8.75-6.67-13.33-12.08-22.09-12.08
				C460.11,196.96,436.77,187.79,436.77,187.79z"/>
			<path class="st5" d="M0.76,192.83c0,0,24.22,5.68,33.56,6.84c9.33,1.16,40,0,40,0l51.28,7.85l70.72,16.64l76.67-31.33
				l54.67-11.33l34.67-14.67l38.86,2l39.14,15.33l34.67,15.51l44,8.49l62,20.67l48.67,4.67c0,0,17.33-13.33,28-16.67
				c10.67-3.33,37.33-10.67,37.33-10.67l55.51-50.67v190.67H0.32L0.76,192.83z"/>
			
				<linearGradient id="SVGID_00000169553839831485083850000014080319513361755547_" gradientUnits="userSpaceOnUse" x1="503.2414" y1="452.4999" x2="503.2414" y2="255.4977">
				<stop  offset="0" style="stop-color:#7495C3"/>
				<stop  offset="0.2783" style="stop-color:#698ABD"/>
				<stop  offset="0.7677" style="stop-color:#4B6CAC"/>
				<stop  offset="1" style="stop-color:#3B5CA3"/>
			</linearGradient>
			<path style="fill:url(#SVGID_00000169553839831485083850000014080319513361755547_);" d="M750.5,213.73c0,0-16.72,28-25.55,28.91
				c-8.82,0.9-24.58,16.26-24.58,16.26l-20.05,5.32l-29.33,4.62c0,0-33.82-5.42-53.36-14.46c-19.54-9.03-22.06-22.58-42.86-22.58
				c-20.8,0-22.06-4.52-38.45-0.9c-16.39,3.61-38.45,4.52-38.45,4.52s-27.1,5.42-44.75-5.42c-17.65-10.84-24.69-23.58-46.12-24.49
				c-21.43-0.9-28.77-12.65-48,0c-19.23,12.65-58.67,34-58.67,34l-5.43,23.01l-18.91,14.45v83.87H750.5V213.73z"/>
			
				<linearGradient id="SVGID_00000000188804508114227210000012522212963192437645_" gradientUnits="userSpaceOnUse" x1="179.6875" y1="361.0357" x2="195.6875" y2="248.0357">
				<stop  offset="0" style="stop-color:#7495C3"/>
				<stop  offset="0.2397" style="stop-color:#6A8ABC"/>
				<stop  offset="0.661" style="stop-color:#4F6CA9"/>
				<stop  offset="1" style="stop-color:#355097"/>
			</linearGradient>
			<path style="fill:url(#SVGID_00000000188804508114227210000012522212963192437645_);" d="M0.5,270.67c0,0,19.03-7.79,34.89-15.58
				c15.86-7.79,53.92-24.48,53.92-24.48s47.58-34.49,66.61-34.49c19.03,0,45.2,11.13,45.2,11.13s30.13,7.79,37.27,7.79
				c7.14,0,4.76,8.9,23.79,8.9c19.03,0,25.37-3.34,35.68,2.23c10.31,5.56,25.37,7.23,25.37,7.23l27.75,26.15
				c0,0,16.65,16.69,24.58,21.14c7.93,4.45,5.55,13.35,5.55,13.35s-60.26,24.48-96.74,24.48s-283.87,0-283.87,0V270.67z"/>
			
				<linearGradient id="SVGID_00000070838935600715578680000017549512730453181613_" gradientUnits="userSpaceOnUse" x1="369.8395" y1="390.7963" x2="372.8395" y2="297.7964">
				<stop  offset="0" style="stop-color:#7495C3"/>
				<stop  offset="0.22" style="stop-color:#6A8ABC"/>
				<stop  offset="0.6083" style="stop-color:#506CAA"/>
				<stop  offset="1" style="stop-color:#304893"/>
			</linearGradient>
			<path style="fill:url(#SVGID_00000070838935600715578680000017549512730453181613_);" d="M0.76,306.22
				c0,0,87.75-34.31,108.67-36.29c20.92-1.98,27.67-10.56,59.4-1.98c31.72,8.58,82.35,24.41,97.2,23.75
				c14.85-0.66,32.4-9.24,62.77-15.17c30.37-5.94,40.5-15.17,68.85-7.26c28.35,7.92,45.68,20.45,61.31,20.45
				c15.63,0,17.66-3.96,32.51,0c14.85,3.96,25.65,4.62,37.8,5.94c12.15,1.32,24.97,3.3,41.17,5.94
				c16.2,2.64,56.02-27.05,78.97-25.73c22.95,1.32,42.52,15.17,55.35,19.79c12.82,4.62,38.9,32.84,38.9,32.84l-66.57,50.29
				l-642.57,4.62L0.76,306.22z"/>
			
				<linearGradient id="SVGID_00000182499789505524261870000017486049606881173141_" gradientUnits="userSpaceOnUse" x1="388.7166" y1="538.446" x2="400.5877" y2="358.8931">
				<stop  offset="0" style="stop-color:#7495C3"/>
				<stop  offset="0.1837" style="stop-color:#6A8ABA"/>
				<stop  offset="0.5079" style="stop-color:#4F6CA3"/>
				<stop  offset="0.9319" style="stop-color:#233C7E"/>
				<stop  offset="1" style="stop-color:#1B3477"/>
			</linearGradient>
			<path style="fill:url(#SVGID_00000182499789505524261870000017486049606881173141_);" d="M63.9,336.61c0,0,35.56-6.37,55.72-6.37
				c20.17,0,49.36,2.65,75.36-5.31s30.25-7.43,55.19-4.25c24.94,3.18,55.32,8.06,55.32,8.06s36.49,6.27,55.6,7.86
				c19.11,1.59,44.58,0,44.58,0s44.05-7.96,64.75-5.84s29.72,14.33,53.6,18.57c23.88,4.25,38.21,7.43,49.89,6.37
				c11.68-1.06,28.66-11.14,48.82-16.45c20.17-5.31,38.74-15.39,88.1,3.71c49.36,19.11,17.51,30.25,17.51,30.25
				s-149.13,66.34-266.41,72.71c-117.28,6.37-254.74-2.12-254.74-2.12L85.66,413.56L63.9,336.61z"/>
			<path class="st10" d="M0.5,291.54c0,0,4.63-0.51,11.84,0c7.21,0.51,15.1,16.99,16.99,17.5c1.89,0.51,2.92,1.89,3.26,3.43
				c0.34,1.54,5.15,11.5,7.55,12.7c2.4,1.2,2.92,0.17,4.12,1.54s2.75,2.4,2.75,0.86c0-1.54,2.4-9.61,4.8-6.01s2.57,11.84,4.63,11.15
				c2.06-0.69,4.8-4.29,7.89-4.38c3.09-0.08,5.32-0.77,5.83-1.29c0.51-0.51,4.29-3.6,7.04-4.29c2.75-0.69,3.43-3.09,6.69-3.77
				c3.26-0.69,9.78,0.86,10.47,2.4c0.69,1.54,2.57,5.66,4.8,6.35c2.23,0.69,2.4,4.12,4.46,6.52s10.3,6.35,15.27,10.3
				c4.98,3.95,7.89,7.21,9.44,7.04c1.54-0.17,1.37-2.4,1.37-2.4l1.03-2.23h2.57l0.51,2.06v2.58l-0.69,1.54l2.57,2.23
				c0,0,4.8,5.66,8.92,6.01c4.12,0.34,3.26-1.72,6.86,0c3.6,1.72,3.95,1.37,8.58,1.89c4.63,0.51,7.72-2.23,12.01-2.06
				c4.29,0.17,10.81,1.84,14.41,2.12c3.6,0.28,6.52-0.24,8.75,0.79c2.23,1.03,3.26,2.06,6.69,4.29c3.43,2.23,12.53,3.09,18.53,6.86
				c6.01,3.77,20.42,15.1,25.57,16.82c5.15,1.72,32.09,12.18,36.89,12.53c4.8,0.34,4.29-1.54,8.75,0
				c4.46,1.54,24.71,9.44,37.06,8.92c12.35-0.51,42.38,0.91,54.22,0.02c11.84-0.88,15.96-2.94,21.79-5.34
				c5.83-2.4,22.82-5.15,29.68-6.01c6.86-0.86,11.32-3.77,18.19-3.09c6.86,0.69,20.42,6.35,26.42,9.09
				c6.01,2.75,28.48,8.67,38.01,6.86c9.52-1.8,11.32-6.69,22.13-8.75c10.81-2.06,25.74,2.32,33.72,0.51
				c7.98-1.8,17.5-9.01,17.5-9.01s8.24-2.83,10.04-5.15c1.8-2.32,10.81-9.78,10.81-9.78s10.55-3.6,19.05-3.6
				c8.49,0,16.47-6.18,16.47-6.18s22.91-1.03,33.2-7.72c10.3-6.69,18.02-12.04,18.02-12.04s33.72-20.9,38.35-26.56
				c4.63-5.66,14.16-8.75,14.16-8.75V500H0.5V291.54z"/>
			
				<linearGradient id="SVGID_00000059296917099322492710000017124552863615999881_" gradientUnits="userSpaceOnUse" x1="108.3013" y1="182.8041" x2="75.3013" y2="193.304">
				<stop  offset="0" style="stop-color:#9CB3D3"/>
				<stop  offset="0.367" style="stop-color:#91ABCF;stop-opacity:0.633"/>
				<stop  offset="1" style="stop-color:#7495C3;stop-opacity:0"/>
			</linearGradient>
			<path style="fill:url(#SVGID_00000059296917099322492710000017124552863615999881_);" d="M63.9,168.83
				c0,0,12.42,10.67,17.75,13.33c5.33,2.67,17.33,9.33,17.33,9.33l22.1,15.33c0,0-30.52-7.33-39.64-15.33S63.9,180.17,63.9,180.17
				V168.83z"/>
		</g>
		
			<linearGradient id="SVGID_00000026156441976259053920000009451638788315369107_" gradientUnits="userSpaceOnUse" x1="238.8917" y1="280.4104" x2="234.5647" y2="291.8463">
			<stop  offset="0" style="stop-color:#7495C3"/>
			<stop  offset="0.2754" style="stop-color:#698ABD;stop-opacity:0.7217"/>
			<stop  offset="0.7598" style="stop-color:#4B6CAC;stop-opacity:0.2323"/>
			<stop  offset="0.9897" style="stop-color:#3B5CA3;stop-opacity:0"/>
		</linearGradient>
		<path style="fill:url(#SVGID_00000026156441976259053920000009451638788315369107_);" d="M161.55,266.19
			c8.54,4.3,24.56,11.72,41.45,16.14c24.83,6.5,42.38,12.88,56.88,15.54c14.5,2.67,50.96,11.96,50.79,11.46
			c-0.17-0.5-31.67-9.96-38-12.33c-5.9-2.21-10.09-3.26-7.06-5.29c-15.33,0.37-65.33-15.25-96.78-23.75
			C166.24,267.25,163.83,266.68,161.55,266.19z"/>
		
			<linearGradient id="SVGID_00000054253930136393378480000005851071201695459986_" gradientUnits="userSpaceOnUse" x1="321.8922" y1="363.1471" x2="323.8838" y2="333.024">
			<stop  offset="0" style="stop-color:#7495C3"/>
			<stop  offset="0.1837" style="stop-color:#6A8ABA"/>
			<stop  offset="0.5079" style="stop-color:#4F6CA3"/>
			<stop  offset="0.9319" style="stop-color:#233C7E"/>
			<stop  offset="1" style="stop-color:#1B3477"/>
		</linearGradient>
		<path style="fill:url(#SVGID_00000054253930136393378480000005851071201695459986_);" d="M397,354.25
			c-12.25-4.75-31.75-15.75-34-17.49l0,0c-0.64-0.05-1.28-0.09-1.9-0.15c-19.11-1.59-55.6-7.86-55.6-7.86s-30.38-4.88-55.32-8.06
			c0,0,99.57,18.81,105.57,21.68S397,354.25,397,354.25z"/>
	</g>
</g>
<g id="Layer_4">
</g>
</svg>
